<svg width="16" height="16" viewBox="0 0 16 16" fill="none" xmlns="http://www.w3.org/2000/svg">
<rect y="16" width="16" height="16" transform="rotate(-90 0 16)" fill="#CFD4CF"/>
<path d="M8.0307 7.3736C7.88739 6.18438 6.9873 5.50052 5.79557 5.50052C4.43538 5.50052 3.39702 6.46095 3.39702 8.14546C3.39702 9.82495 4.41779 10.7904 5.79557 10.7904C7.11553 10.7904 7.91253 9.91295 8.0307 8.96509L6.92948 8.96006C6.82639 9.51068 6.39395 9.82746 5.81317 9.82746C5.03125 9.82746 4.50075 9.24668 4.50075 8.14546C4.50075 7.07441 5.02371 6.46346 5.82071 6.46346C6.41658 6.46346 6.84651 6.80791 6.92948 7.3736H8.0307Z" fill="black"/>
<path d="M8.81136 10.72H11.0113C12.1678 10.72 12.7838 10.1166 12.7838 9.29697C12.7838 8.53516 12.2382 8.07506 11.6524 8.04741V7.99712C12.1879 7.87644 12.5827 7.4968 12.5827 6.89087C12.5827 6.11901 12.0094 5.57092 10.873 5.57092H8.81136V10.72ZM9.90001 9.82998V8.46225H10.8127C11.3356 8.46225 11.66 8.76396 11.66 9.18886C11.66 9.57604 11.396 9.82998 10.7875 9.82998H9.90001ZM9.90001 7.72559V6.45089H10.7272C11.2099 6.45089 11.484 6.69979 11.484 7.0719C11.484 7.4792 11.1521 7.72559 10.7071 7.72559H9.90001Z" fill="black"/>
</svg>
